#Comment line ignore any data following # character 
#Hierarchical Translation and Rotation (.htr) file 
[Header]	
#Header keywords are followed by a single value 
FileType HTR		#Single word string
DataType HTRS		#Translation followed by rotation and scale data
FileVersion 1		#integer
NumSegments 84		#integer
NumFrames 2		#integer
DataFrameRate 30		#integer, data frame rate in this file
EulerRotationOrder ZYX
CalibrationUnits mm
RotationUnits Degrees
GlobalAxisofGravity Y
BoneLengthAxis Y
ScaleFactor 1.00
[SegmentNames&Hierarchy]
#CHILD	PARENT
MASTER GLOBAL
root MASTER
chest root
L_mid_tent01 root
R_mid_tent01 root
spine01 root
Bip01_Neck chest
L_humerus chest
R_humerus chest
weapon_bone chest
Bip01_Head Bip01_Neck
eye_left_bone Bip01_Head
eye_right_bone Bip01_Head
L_forearm L_humerus
L_front_hand L_forearm
L_weapon_bone L_forearm
L_front_hand01_01 L_front_hand
L_front_hand02_01 L_front_hand
L_front_hand03_01 L_front_hand
L_front_hand01_02 L_front_hand01_01
L_front_hand02_02 L_front_hand02_01
L_front_hand03_02 L_front_hand03_01
R_forearm R_humerus
R_front_hand R_forearm
R_weapon_bone R_forearm
R_front_hand01_01 R_front_hand
R_front_hand02_01 R_front_hand
R_front_hand03_01 R_front_hand
R_front_hand01_02 R_front_hand01_01
R_front_hand02_02 R_front_hand02_01
R_front_hand03_02 R_front_hand03_01
null_rope01_connect L_mid_tent01
Rope1_Seg01 null_rope01_connect
Rope1_Seg02 Rope1_Seg01
Rope1_Seg03 Rope1_Seg02
Rope1_Seg04 Rope1_Seg03
Rope1_Seg05 Rope1_Seg04
Rope1_Seg06 Rope1_Seg05
Rope1_Seg07 Rope1_Seg06
Rope1_Seg09 Rope1_Seg07
L_mid_hand01 Rope1_Seg09
L_mid_hand02 Rope1_Seg09
L_mid_hand03 Rope1_Seg09
null_rope02_connect R_mid_tent01
Rope2_Seg01 null_rope02_connect
Rope2_Seg02 Rope2_Seg01
Rope2_Seg03 Rope2_Seg02
Rope2_Seg04 Rope2_Seg03
Rope2_Seg05 Rope2_Seg04
Rope2_Seg06 Rope2_Seg05
Rope2_Seg07 Rope2_Seg06
Rope2_Seg09 Rope2_Seg07
R_mid_hand01 Rope2_Seg09
R_mid_hand02 Rope2_Seg09
R_mid_hand03 Rope2_Seg09
spine02 spine01
spine03 spine02
pelvis spine03
null_rope03_connect pelvis
null_rope04_connect pelvis
Rope3_Seg01 null_rope03_connect
Rope3_Seg02 Rope3_Seg01
Rope3_Seg03 Rope3_Seg02
Rope3_Seg04 Rope3_Seg03
Rope3_Seg05 Rope3_Seg04
Rope3_Seg06 Rope3_Seg05
Rope3_Seg07 Rope3_Seg06
Rope3_Seg08 Rope3_Seg07
Rope3_Seg09 Rope3_Seg08
R_rear_hand01 Rope3_Seg09
R_rear_hand02 Rope3_Seg09
R_rear_hand03 Rope3_Seg09
Rope4_Seg01 null_rope04_connect
Rope4_Seg02 Rope4_Seg01
Rope4_Seg03 Rope4_Seg02
Rope4_Seg04 Rope4_Seg03
Rope4_Seg05 Rope4_Seg04
Rope4_Seg06 Rope4_Seg05
Rope4_Seg07 Rope4_Seg06
Rope4_Seg08 Rope4_Seg07
Rope4_Seg09 Rope4_Seg08
L_rear_hand01 Rope4_Seg09
L_rear_hand02 Rope4_Seg09
L_rear_hand03 Rope4_Seg09
[BasePosition]
#SegmentName Tx, Ty, Tz, Rx, Ry, Rz, BoneLength
MASTER 0.000000 0.000000 0.000000 -90.000000 0.000000 0.000000 10.000000 
root 0.000000 0.000000 0.000000 0.000000 0.000000 0.000000 10.000000 
chest 0.000000 0.000000 0.000000 0.000000 0.000000 0.000000 10.000000 
L_mid_tent01 0.000000 0.000000 0.000000 0.000000 0.000000 0.000000 10.000000 
R_mid_tent01 0.000000 0.000000 0.000000 0.000000 0.000000 0.000000 10.000000 
spine01 0.000000 0.000000 0.000000 0.000000 0.000000 0.000000 10.000000 
Bip01_Neck 0.000000 0.000000 0.000000 0.000000 0.000000 0.000000 10.000000 
L_humerus 0.000000 0.000000 0.000000 0.000000 0.000000 0.000000 10.000000 
R_humerus 0.000000 0.000000 0.000000 0.000000 0.000000 0.000000 10.000000 
weapon_bone 0.000000 0.000000 0.000000 0.000000 0.000000 0.000000 10.000000 
Bip01_Head 0.000000 0.000000 0.000000 0.000000 0.000000 0.000000 10.000000 
eye_left_bone 0.000000 0.000000 0.000000 0.000000 0.000000 0.000000 10.000000 
eye_right_bone 0.000000 0.000000 0.000000 0.000000 0.000000 0.000000 10.000000 
L_forearm 0.000000 0.000000 0.000000 0.000000 0.000000 0.000000 10.000000 
L_front_hand 0.000000 0.000000 0.000000 0.000000 0.000000 0.000000 10.000000 
L_weapon_bone 0.000000 0.000000 0.000000 0.000000 0.000000 0.000000 10.000000 
L_front_hand01_01 0.000000 0.000000 0.000000 0.000000 0.000000 0.000000 10.000000 
L_front_hand02_01 0.000000 0.000000 0.000000 0.000000 0.000000 0.000000 10.000000 
L_front_hand03_01 0.000000 0.000000 0.000000 0.000000 0.000000 0.000000 10.000000 
L_front_hand01_02 0.000000 0.000000 0.000000 0.000000 0.000000 0.000000 10.000000 
L_front_hand02_02 0.000000 0.000000 0.000000 0.000000 0.000000 0.000000 10.000000 
L_front_hand03_02 0.000000 0.000000 0.000000 0.000000 0.000000 0.000000 10.000000 
R_forearm 0.000000 0.000000 0.000000 0.000000 0.000000 0.000000 10.000000 
R_front_hand 0.000000 0.000000 0.000000 0.000000 0.000000 0.000000 10.000000 
R_weapon_bone 0.000000 0.000000 0.000000 0.000000 0.000000 0.000000 10.000000 
R_front_hand01_01 0.000000 0.000000 0.000000 0.000000 0.000000 0.000000 10.000000 
R_front_hand02_01 0.000000 0.000000 0.000000 0.000000 0.000000 0.000000 10.000000 
R_front_hand03_01 0.000000 0.000000 0.000000 0.000000 0.000000 0.000000 10.000000 
R_front_hand01_02 0.000000 0.000000 0.000000 0.000000 0.000000 0.000000 10.000000 
R_front_hand02_02 0.000000 0.000000 0.000000 0.000000 0.000000 0.000000 10.000000 
R_front_hand03_02 0.000000 0.000000 0.000000 0.000000 0.000000 0.000000 10.000000 
null_rope01_connect 0.000000 0.000000 0.000000 0.000000 0.000000 0.000000 10.000000 
Rope1_Seg01 0.000000 0.000000 0.000000 0.000000 0.000000 0.000000 10.000000 
Rope1_Seg02 0.000000 0.000000 0.000000 0.000000 0.000000 0.000000 10.000000 
Rope1_Seg03 0.000000 0.000000 0.000000 0.000000 0.000000 0.000000 10.000000 
Rope1_Seg04 0.000000 0.000000 0.000000 0.000000 0.000000 0.000000 10.000000 
Rope1_Seg05 0.000000 0.000000 0.000000 0.000000 0.000000 0.000000 10.000000 
Rope1_Seg06 0.000000 0.000000 0.000000 0.000000 0.000000 0.000000 10.000000 
Rope1_Seg07 0.000000 0.000000 0.000000 0.000000 0.000000 0.000000 10.000000 
Rope1_Seg09 0.000000 0.000000 0.000000 0.000000 0.000000 0.000000 10.000000 
L_mid_hand01 0.000000 0.000000 0.000000 0.000000 0.000000 0.000000 10.000000 
L_mid_hand02 0.000000 0.000000 0.000000 0.000000 0.000000 0.000000 10.000000 
L_mid_hand03 0.000000 0.000000 0.000000 0.000000 0.000000 0.000000 10.000000 
null_rope02_connect 0.000000 0.000000 0.000000 0.000000 0.000000 0.000000 10.000000 
Rope2_Seg01 0.000000 0.000000 0.000000 0.000000 0.000000 0.000000 10.000000 
Rope2_Seg02 0.000000 0.000000 0.000000 0.000000 0.000000 0.000000 10.000000 
Rope2_Seg03 0.000000 0.000000 0.000000 0.000000 0.000000 0.000000 10.000000 
Rope2_Seg04 0.000000 0.000000 0.000000 0.000000 0.000000 0.000000 10.000000 
Rope2_Seg05 0.000000 0.000000 0.000000 0.000000 0.000000 0.000000 10.000000 
Rope2_Seg06 0.000000 0.000000 0.000000 0.000000 0.000000 0.000000 10.000000 
Rope2_Seg07 0.000000 0.000000 0.000000 0.000000 0.000000 0.000000 10.000000 
Rope2_Seg09 0.000000 0.000000 0.000000 0.000000 0.000000 0.000000 10.000000 
R_mid_hand01 0.000000 0.000000 0.000000 0.000000 0.000000 0.000000 10.000000 
R_mid_hand02 0.000000 0.000000 0.000000 0.000000 0.000000 0.000000 10.000000 
R_mid_hand03 0.000000 0.000000 0.000000 0.000000 0.000000 0.000000 10.000000 
spine02 0.000000 0.000000 0.000000 0.000000 0.000000 0.000000 10.000000 
spine03 0.000000 0.000000 0.000000 0.000000 0.000000 0.000000 10.000000 
pelvis 0.000000 0.000000 0.000000 0.000000 0.000000 0.000000 10.000000 
null_rope03_connect 0.000000 0.000000 0.000000 0.000000 0.000000 0.000000 10.000000 
null_rope04_connect 0.000000 0.000000 0.000000 0.000000 0.000000 0.000000 10.000000 
Rope3_Seg01 0.000000 0.000000 0.000000 0.000000 0.000000 0.000000 10.000000 
Rope3_Seg02 0.000000 0.000000 0.000000 0.000000 0.000000 0.000000 10.000000 
Rope3_Seg03 0.000000 0.000000 0.000000 0.000000 0.000000 0.000000 10.000000 
Rope3_Seg04 0.000000 0.000000 0.000000 0.000000 0.000000 0.000000 10.000000 
Rope3_Seg05 0.000000 0.000000 0.000000 0.000000 0.000000 0.000000 10.000000 
Rope3_Seg06 0.000000 0.000000 0.000000 0.000000 0.000000 0.000000 10.000000 
Rope3_Seg07 0.000000 0.000000 0.000000 0.000000 0.000000 0.000000 10.000000 
Rope3_Seg08 0.000000 0.000000 0.000000 0.000000 0.000000 0.000000 10.000000 
Rope3_Seg09 0.000000 0.000000 0.000000 0.000000 0.000000 0.000000 10.000000 
R_rear_hand01 0.000000 0.000000 0.000000 0.000000 0.000000 0.000000 10.000000 
R_rear_hand02 0.000000 0.000000 0.000000 0.000000 0.000000 0.000000 10.000000 
R_rear_hand03 0.000000 0.000000 0.000000 0.000000 0.000000 0.000000 10.000000 
Rope4_Seg01 0.000000 0.000000 0.000000 0.000000 0.000000 0.000000 10.000000 
Rope4_Seg02 0.000000 0.000000 0.000000 0.000000 0.000000 0.000000 10.000000 
Rope4_Seg03 0.000000 0.000000 0.000000 0.000000 0.000000 0.000000 10.000000 
Rope4_Seg04 0.000000 0.000000 0.000000 0.000000 0.000000 0.000000 10.000000 
Rope4_Seg05 0.000000 0.000000 0.000000 0.000000 0.000000 0.000000 10.000000 
Rope4_Seg06 0.000000 0.000000 0.000000 0.000000 0.000000 0.000000 10.000000 
Rope4_Seg07 0.000000 0.000000 0.000000 0.000000 0.000000 0.000000 10.000000 
Rope4_Seg08 0.000000 0.000000 0.000000 0.000000 0.000000 0.000000 10.000000 
Rope4_Seg09 0.000000 0.000000 0.000000 0.000000 0.000000 0.000000 10.000000 
L_rear_hand01 0.000000 0.000000 0.000000 0.000000 0.000000 0.000000 10.000000 
L_rear_hand02 0.000000 0.000000 0.000000 0.000000 0.000000 0.000000 10.000000 
L_rear_hand03 0.000000 0.000000 0.000000 0.000000 0.000000 0.000000 10.000000 
#Beginning of Data. Separated by tabs
#Fr	Tx	Ty	Tz	Rx	Ry	Rz	SF
[MASTER]
6 0.000000 0.000000 0.000000 0.001660 0.001660 0.001660 0.000000
7 0.000000 0.000000 0.000000 0.001660 0.001660 0.001660 0.000000
[root]
6 -27.192339 -25.327042 1475.470703 -81.721237 -14.342049 -101.582191 1475.938477
7 -30.356583 -33.005451 1483.507446 -79.934814 -15.329296 -103.742828 1484.184937
[chest]
6 -84.512650 -34.090519 0.000000 -2.201508 5.798218 151.795532 91.129311
7 -84.512650 -34.090519 0.000000 -2.436997 6.335170 149.223434 91.129311
[L_mid_tent01]
6 27.299129 22.179081 -249.918701 4.007786 11.852603 81.702972 252.381683
7 27.299131 22.179077 -249.918701 3.325118 14.915477 80.934853 252.381683
[R_mid_tent01]
6 23.228794 24.509907 226.238495 161.760895 -18.885092 83.525017 228.744751
7 23.228794 24.509907 226.238495 157.927261 -40.790516 90.488297 228.744751
[spine01]
6 -0.361383 -0.195265 0.000000 0.002062 0.001122 32.879829 0.410763
7 -0.361383 -0.195265 0.000000 0.002062 0.001122 32.879829 0.410763
[Bip01_Neck]
6 165.484543 71.581718 0.000119 176.643677 -1.657967 43.431915 180.302734
7 165.484543 71.581718 0.000119 176.643677 -1.657967 43.431911 180.302734
[L_humerus]
6 -13.983130 -135.272980 -120.471481 -170.588135 73.724907 -62.313694 181.680161
7 -13.983130 -135.272980 -120.471481 -179.214417 64.021385 -66.557320 181.680161
[R_humerus]
6 -13.983309 -135.273102 125.287651 159.363510 -70.103180 -62.563618 184.909012
7 -13.983309 -135.273102 125.287651 168.644089 -60.832676 -71.597107 184.909012
[weapon_bone]
6 235.964890 -300.705902 0.000000 0.000000 -89.951546 -128.212341 382.234833
7 235.964890 -300.705902 0.000000 0.000000 -89.951546 -128.212341 382.234833
[Bip01_Head]
6 213.444199 185.715347 11.776942 11.999636 2.843825 -43.900719 283.173645
7 213.444199 185.715347 11.776941 14.514406 2.860378 -43.900433 283.173645
[eye_left_bone]
6 -24.626970 125.451866 -64.772606 0.000000 -90.000000 -99.840431 143.318359
7 -24.626970 125.451866 -64.772606 0.000000 -90.000000 -99.840431 143.318359
[eye_right_bone]
6 -24.626970 125.451866 64.327362 0.000000 -89.965736 80.156380 143.117676
7 -24.626970 125.451866 64.327362 0.000000 -89.965736 80.156380 143.117676
[L_forearm]
6 322.776093 0.000000 -0.000119 0.000396 -0.002314 -109.419975 322.776093
7 322.776093 0.000000 -0.000119 0.000396 -0.002314 -109.419975 322.776093
[L_front_hand]
6 241.149185 -0.042021 -3.300071 -178.667953 -1.835447 -27.422350 241.171753
7 241.149185 -0.042021 -3.300071 -178.667953 -1.835447 -27.422342 241.171753
[L_weapon_bone]
6 156.183838 0.000000 0.000000 0.000014 0.000007 0.000001 156.183838
7 156.183838 0.000000 0.000000 0.000014 0.000007 0.000001 156.183838
[L_front_hand01_01]
6 86.095154 20.947098 -0.655860 -0.349230 -0.490139 73.139862 88.609184
7 86.095154 20.947098 -0.655860 -0.335131 -0.500211 71.723785 88.609184
[L_front_hand02_01]
6 86.935165 -11.437475 24.513514 151.025055 -58.854893 -57.448074 91.046425
7 86.935165 -11.437475 24.513514 149.028946 -58.148323 -55.100948 91.046425
[L_front_hand03_01]
6 86.637497 -14.123976 -20.424902 -150.781433 57.074539 -58.996449 90.126129
7 86.637497 -14.123976 -20.424902 -148.918808 56.366669 -56.764694 90.126129
[L_front_hand01_02]
6 71.020905 -0.000179 0.000030 0.000318 -0.002326 -105.574486 71.020905
7 71.020905 -0.000179 0.000030 0.000317 -0.002326 -105.537254 71.020905
[L_front_hand02_02]
6 71.020927 -0.000119 0.000060 0.000318 -0.002326 -105.574486 71.020927
7 71.020927 -0.000119 0.000060 0.000317 -0.002326 -105.537254 71.020927
[L_front_hand03_02]
6 71.020905 -0.000060 0.000060 0.000318 -0.002326 -105.574486 71.020905
7 71.020905 -0.000060 0.000060 0.000317 -0.002326 -105.537254 71.020905
[R_forearm]
6 322.776428 -0.000060 0.000030 0.202103 0.065158 -108.062805 322.776428
7 322.776428 -0.000060 0.000030 0.202103 0.065158 -108.062820 322.776428
[R_front_hand]
6 238.847015 -0.006795 2.210259 -2.635298 -10.645461 -26.312506 238.857239
7 238.847015 -0.006795 2.210259 -2.635298 -10.645461 -26.312506 238.857239
[R_weapon_bone]
6 155.664093 0.002503 -0.000030 0.003487 0.001180 -90.988930 155.664078
7 155.664093 0.002503 -0.000030 0.003487 0.001180 -90.988930 155.664078
[R_front_hand01_01]
6 87.624611 14.231146 22.918642 -151.601074 -59.040489 58.224773 91.683487
7 87.624611 14.231146 22.918642 -149.707169 -58.394512 56.007454 91.683487
[R_front_hand02_01]
6 89.356956 14.367283 -19.491137 151.761566 57.399368 60.393955 92.579636
7 89.356956 14.367283 -19.491137 149.983459 56.758793 58.275940 92.579636
[R_front_hand03_01]
6 87.286232 -22.307278 -0.143439 0.146836 -0.431871 -73.769867 90.091743
7 87.286232 -22.307278 -0.143439 0.134949 -0.432464 -72.452232 90.091743
[R_front_hand01_02]
6 71.020905 0.000060 0.000119 0.002323 -0.000334 106.381714 71.020905
7 71.020905 0.000060 0.000119 0.002323 -0.000334 106.381714 71.020905
[R_front_hand02_02]
6 71.020844 -0.000030 -0.000119 0.002323 -0.000334 106.381714 71.020836
7 71.020844 -0.000030 -0.000119 0.002323 -0.000334 106.381714 71.020836
[R_front_hand03_02]
6 71.020905 0.000000 0.000030 0.002323 -0.000334 106.381714 71.020905
7 71.020905 0.000000 0.000030 0.002323 -0.000334 106.381714 71.020905
[null_rope01_connect]
6 328.732483 0.000000 -0.000238 -94.497215 -72.156311 117.001144 328.732483
7 328.732483 0.000000 -0.000238 -97.229988 -69.590134 121.256859 328.732483
[Rope1_Seg01]
6 -0.000035 0.000032 0.000127 157.997833 65.310135 -177.303375 0.000136
7 -0.000034 0.000031 0.000122 -155.617142 77.511414 -141.151443 0.000130
[Rope1_Seg02]
6 139.999863 -0.000179 0.000000 -21.013727 29.695801 17.390436 139.999863
7 139.999863 -0.000179 0.000000 -22.621849 29.312887 11.289770 139.999863
[Rope1_Seg03]
6 139.999924 0.000060 -0.000060 -7.552192 -2.170202 26.649542 139.999924
7 139.999924 0.000060 -0.000060 -16.492592 16.679461 23.066008 139.999924
[Rope1_Seg04]
6 139.999924 -0.000060 -0.000119 -9.689249 -43.406574 17.453764 139.999924
7 139.999924 -0.000060 -0.000119 -7.392030 -48.225712 23.709696 139.999924
[Rope1_Seg05]
6 139.999832 0.000119 -0.000060 -2.455067 -7.659083 2.774101 139.999832
7 139.999832 0.000119 -0.000060 -2.660930 -11.456546 5.406264 139.999832
[Rope1_Seg06]
6 139.999954 0.000119 -0.000060 -1.403487 -3.678898 1.224528 139.999954
7 139.999954 0.000119 -0.000060 -1.210830 -4.458563 2.152541 139.999954
[Rope1_Seg07]
6 139.999985 0.000060 0.000000 -0.916278 -2.179241 0.667114 139.999985
7 139.999985 0.000060 0.000000 -0.776044 -2.537896 1.161627 139.999985
[Rope1_Seg09]
6 121.602913 0.000119 -0.000089 -89.793175 -1.359789 0.847147 121.602913
7 121.602913 0.000119 -0.000089 -89.793175 -1.359789 0.847147 121.602913
[L_mid_hand01]
6 103.859421 1.038730 8.195221 112.493240 -49.600185 -18.031643 104.187431
7 103.859421 1.038730 8.195221 110.549706 -45.072773 -15.392938 104.187431
[L_mid_hand02]
6 105.572853 -4.139662 -10.864139 -152.303986 36.371010 -47.886745 106.211075
7 105.572853 -4.139662 -10.864139 -149.303925 33.991974 -42.687023 106.211075
[L_mid_hand03]
6 104.641464 17.579376 -3.913581 -12.027911 14.512395 53.523804 106.179977
7 104.641464 17.579376 -3.913581 -13.209491 13.449579 48.630810 106.179977
[null_rope02_connect]
6 328.732849 0.000179 -0.000119 -139.671387 66.929756 13.088325 328.732849
7 328.732849 0.000179 -0.000119 -146.645630 44.266220 2.941495 328.732849
[Rope2_Seg01]
6 0.000038 0.000110 0.000000 93.363037 -16.878838 -122.793922 0.000116
7 0.000031 0.000109 0.000000 95.418312 -3.639634 -132.316986 0.000113
[Rope2_Seg02]
6 139.999741 -0.000060 -0.000119 0.245652 3.873699 -6.114271 139.999756
7 139.999741 -0.000060 -0.000119 0.024675 1.717700 -7.050812 139.999756
[Rope2_Seg03]
6 140.000107 0.000030 0.000000 5.467009 18.754927 -32.930340 140.000107
7 140.000107 0.000030 0.000000 1.464240 3.851864 -16.151226 140.000107
[Rope2_Seg04]
6 139.999802 0.000000 -0.000060 72.890533 21.874048 -81.771805 139.999802
7 139.999802 0.000000 -0.000060 15.298471 8.083793 -43.535156 139.999802
[Rope2_Seg05]
6 139.999985 -0.000060 0.000119 7.326792 -13.145885 -5.444369 139.999985
7 139.999985 -0.000060 0.000119 36.325325 -4.694001 -46.129292 139.999985
[Rope2_Seg06]
6 139.999893 -0.000030 -0.000119 0.721416 -2.865360 -0.293445 139.999893
7 139.999893 -0.000030 -0.000119 6.160346 -6.188965 -7.111077 139.999893
[Rope2_Seg07]
6 139.999893 0.000060 -0.000060 0.026623 -1.328866 0.406925 139.999893
7 139.999893 0.000060 -0.000060 1.417429 -2.029954 -1.725231 139.999893
[Rope2_Seg09]
6 121.338966 0.000089 -0.000060 33.793236 -1.359788 -0.847141 121.338966
7 121.338966 0.000089 -0.000060 33.793236 -1.359788 -0.847141 121.338966
[R_mid_hand01]
6 104.680779 11.144459 -10.335981 -25.740593 41.350704 56.606117 105.778534
7 104.680779 11.144459 -10.335981 -28.447895 39.731529 52.443096 105.778534
[R_mid_hand02]
6 104.070427 2.443552 8.231699 61.361111 -58.825871 25.577074 104.424065
7 104.070427 2.443552 8.231699 63.902641 -55.672291 22.558332 104.424065
[R_mid_hand03]
6 106.028137 -11.221827 -5.996406 -174.179749 14.727765 -65.439743 106.788818
7 106.028137 -11.221827 -5.996406 -173.262527 14.339042 -61.789948 106.788818
[spine02]
6 129.756927 0.001550 0.000119 0.360061 -4.044797 -12.915057 129.756927
7 129.756927 0.001550 0.000119 0.360061 -4.044797 -12.915058 129.756927
[spine03]
6 78.614075 0.081507 -4.898999 1.896495 3.831288 16.473045 78.766609
7 78.614075 0.081512 -4.898998 1.896494 3.831287 16.473045 78.766609
[pelvis]
6 169.435242 0.051022 0.000000 -0.060465 -0.180225 14.087930 169.435257
7 169.435242 0.051022 0.000000 -0.060465 -0.180225 14.087930 169.435257
[null_rope03_connect]
6 -1.257226 -2.466202 137.391083 -46.031017 -76.759987 100.758446 137.418976
7 -1.257226 -2.466202 137.391083 -45.245754 -74.518867 101.335754 137.418976
[null_rope04_connect]
6 -1.259640 -2.480268 -137.844437 -46.031017 -76.759987 100.758446 137.872513
7 -1.259640 -2.480268 -137.844437 -45.245754 -74.518867 101.335754 137.872513
[Rope3_Seg01]
6 0.000010 0.000032 -0.000127 -130.149963 -1.668817 -87.394203 0.000131
7 0.000010 0.000031 -0.000122 -136.473785 16.400375 -100.762756 0.000126
[Rope3_Seg02]
6 139.999924 -0.000119 0.000060 20.891792 -37.121128 -43.540634 139.999924
7 139.999924 -0.000119 0.000060 14.418207 -31.640675 -47.472237 139.999924
[Rope3_Seg03]
6 139.999924 -0.000119 0.000119 15.853679 -17.559170 -14.389938 139.999924
7 139.999924 -0.000119 0.000119 7.447896 -19.496777 -29.808096 139.999924
[Rope3_Seg04]
6 139.999924 0.000119 0.000000 12.084599 -7.111265 -2.974492 139.999924
7 139.999924 0.000119 0.000000 4.616675 -5.973362 -6.566952 139.999924
[Rope3_Seg05]
6 139.999924 -0.000238 0.000060 28.260563 -9.650352 -1.256181 139.999924
7 139.999924 -0.000238 0.000060 24.142151 -7.974535 -3.698615 139.999924
[Rope3_Seg06]
6 139.999893 -0.000119 -0.000060 55.892899 -17.151730 7.140064 139.999893
7 139.999893 -0.000119 -0.000060 75.803627 -16.666248 1.949824 139.999893
[Rope3_Seg07]
6 139.999771 0.000060 -0.000119 19.083929 -3.431151 17.247601 139.999771
7 139.999771 0.000060 -0.000119 22.597816 -2.773918 18.089523 139.999771
[Rope3_Seg08]
6 139.999985 -0.000060 0.000000 5.523126 1.388951 10.064168 139.999985
7 139.999985 -0.000060 0.000000 5.715362 2.286030 10.600696 139.999985
[Rope3_Seg09]
6 90.185997 -0.000179 -0.000060 89.793228 -1.359877 -0.847183 90.185997
7 90.185997 -0.000179 -0.000060 89.793228 -1.359877 -0.847183 90.185997
[R_rear_hand01]
6 103.366196 -6.073594 -10.757982 -171.684540 23.302565 -59.125771 104.101845
7 103.366196 -6.073594 -10.757982 -169.896027 22.621880 -54.548431 104.101845
[R_rear_hand02]
6 100.509819 12.039542 -7.992327 -21.930750 32.777496 56.381863 101.543350
7 100.509819 12.039542 -7.992327 -24.381289 31.099262 51.752331 101.543350
[R_rear_hand03]
6 101.539970 5.215704 5.435467 79.009171 -58.663548 13.282337 101.819031
7 101.539970 5.215704 5.435467 80.187729 -54.464619 11.876325 101.819031
[Rope4_Seg01]
6 0.000013 0.000064 -0.000165 47.267773 -0.930355 -79.513672 0.000178
7 0.000011 0.000061 -0.000168 50.848896 7.722239 -77.001778 0.000179
[Rope4_Seg02]
6 139.999985 0.000060 0.000119 21.080118 -45.630875 -55.563389 139.999985
7 139.999985 0.000060 0.000119 24.474688 -46.557175 -58.354008 139.999985
[Rope4_Seg03]
6 139.999924 0.000000 -0.000238 -11.092520 -18.690432 -16.890545 139.999924
7 139.999924 0.000000 -0.000238 -7.092160 -20.011759 -15.875711 139.999924
[Rope4_Seg04]
6 139.999985 0.000000 0.000119 -8.107793 -3.136438 -4.643153 139.999985
7 139.999985 0.000000 0.000119 -6.556089 -3.528169 -4.406644 139.999985
[Rope4_Seg05]
6 139.999802 -0.000060 -0.000119 -14.745182 -1.915736 -5.438622 139.999802
7 139.999802 -0.000060 -0.000119 -14.746507 -2.020793 -5.784684 139.999802
[Rope4_Seg06]
6 139.999924 0.000000 0.000060 -41.324463 -0.365707 -10.839640 139.999924
7 139.999924 0.000000 0.000060 -45.507256 0.164760 -12.965861 139.999924
[Rope4_Seg07]
6 139.999802 0.000000 0.000000 -51.843048 16.912861 -21.177921 139.999802
7 139.999802 0.000000 0.000000 -47.235634 21.420013 -21.487242 139.999802
[Rope4_Seg08]
6 139.999924 0.000000 0.000119 -9.961394 20.431623 -0.728571 139.999924
7 139.999924 0.000000 0.000119 -8.450276 20.218939 -0.505263 139.999924
[Rope4_Seg09]
6 90.185791 0.000060 0.000060 -135.617828 2.228885 0.850567 90.185791
7 90.185791 0.000060 0.000060 -135.617828 2.228885 0.850567 90.185791
[L_rear_hand01]
6 101.696655 -8.392275 -7.654577 -30.719053 -24.879360 141.681381 102.329041
7 101.696655 -8.392275 -7.654577 -31.684452 -23.583008 144.025742 102.329041
[L_rear_hand02]
6 102.726799 -1.568258 5.773216 82.428497 41.230476 171.131027 102.900848
7 102.726799 -1.568258 5.773216 82.701553 38.753956 171.553619 102.900848
[L_rear_hand03]
6 104.552910 9.721220 -10.420293 -164.822937 -19.676035 -139.457687 105.519653
7 104.552910 9.721220 -10.420293 -163.975403 -19.004421 -142.009338 105.519653
